<?xml version="1.0" ?><svg viewBox="0 0 64 64" xmlns="http://www.w3.org/2000/svg" fill="#C4D2E2"><g data-name="Table" id="Table-5"><path d="M54.64,12.84H9.36A2.36,2.36,0,0,0,7,15.2V18a2.36,2.36,0,0,0,2.36,2.36H17.6L27.94,30.68,12.35,46.26a2.87,2.87,0,0,0,4.07,4.06L32,34.74,47.58,50.32a2.87,2.87,0,0,0,4.07-4.06L36.07,30.68,46.4,20.34h8.24A2.36,2.36,0,0,0,57,18V15.2A2.36,2.36,0,0,0,54.64,12.84Zm-34.21,7.5H22.9L30.59,28l-1.24,1.24ZM32,26.61l-6.27-6.27H38.27ZM50.23,47.67A.87.87,0,0,1,49,48.91L33.41,33.33l1.24-1.24ZM31.29,32.62h0L15,48.91a.87.87,0,0,1-1.23-1.24L41.1,20.34h2.47ZM55,18a.36.36,0,0,1-.36.36H9.36A.36.36,0,0,1,9,18V15.2a.35.35,0,0,1,.36-.36H54.64a.35.35,0,0,1,.36.36Z"/></g></svg>
